<mxfile host="app.diagrams.net" agent="Mozilla/5.0 (Windows NT 10.0; Win64; x64; rv:138.0) Gecko/20100101 Firefox/138.0" version="27.0.3">
  <diagram name="Page-1" id="zug585xdQtPAIuvkM40T">
    <mxGraphModel dx="5723" dy="3911" grid="1" gridSize="10" guides="1" tooltips="1" connect="1" arrows="1" fold="1" page="1" pageScale="1" pageWidth="4681" pageHeight="3300" math="0" shadow="0">
      <root>
        <mxCell id="0" />
        <mxCell id="1" parent="0" />
        <mxCell id="eRHPwqO124K7hBbh6g_9-1" value="TárRendszer" style="ellipse;whiteSpace=wrap;html=1;" vertex="1" parent="1">
          <mxGeometry x="-764" y="20" width="120" height="50" as="geometry" />
        </mxCell>
        <mxCell id="eRHPwqO124K7hBbh6g_9-2" style="edgeStyle=none;curved=1;rounded=0;orthogonalLoop=1;jettySize=auto;html=1;exitX=0.5;exitY=1;exitDx=0;exitDy=0;entryX=0.5;entryY=0;entryDx=0;entryDy=0;fontSize=12;startSize=8;endSize=8;endArrow=none;startFill=0;" edge="1" parent="1" source="eRHPwqO124K7hBbh6g_9-5" target="eRHPwqO124K7hBbh6g_9-66">
          <mxGeometry relative="1" as="geometry" />
        </mxCell>
        <mxCell id="eRHPwqO124K7hBbh6g_9-3" style="edgeStyle=none;curved=1;rounded=0;orthogonalLoop=1;jettySize=auto;html=1;exitX=0.5;exitY=1;exitDx=0;exitDy=0;entryX=0.5;entryY=0;entryDx=0;entryDy=0;fontSize=12;startSize=8;endSize=8;endArrow=none;startFill=0;" edge="1" parent="1" source="eRHPwqO124K7hBbh6g_9-5" target="eRHPwqO124K7hBbh6g_9-86">
          <mxGeometry relative="1" as="geometry" />
        </mxCell>
        <mxCell id="eRHPwqO124K7hBbh6g_9-4" style="edgeStyle=none;curved=1;rounded=0;orthogonalLoop=1;jettySize=auto;html=1;exitX=0.5;exitY=1;exitDx=0;exitDy=0;entryX=0.5;entryY=0;entryDx=0;entryDy=0;fontSize=12;startSize=8;endSize=8;endArrow=none;startFill=0;" edge="1" parent="1" source="eRHPwqO124K7hBbh6g_9-5" target="eRHPwqO124K7hBbh6g_9-100">
          <mxGeometry relative="1" as="geometry" />
        </mxCell>
        <mxCell id="eRHPwqO124K7hBbh6g_9-5" value="TárRendszer" style="ellipse;whiteSpace=wrap;html=1;" vertex="1" parent="1">
          <mxGeometry x="248" y="-109" width="120" height="50" as="geometry" />
        </mxCell>
        <mxCell id="eRHPwqO124K7hBbh6g_9-6" value="Cég" style="ellipse;whiteSpace=wrap;html=1;" vertex="1" parent="1">
          <mxGeometry x="-759" y="26" width="109" height="38" as="geometry" />
        </mxCell>
        <mxCell id="eRHPwqO124K7hBbh6g_9-7" value="" style="endArrow=none;html=1;rounded=0;fontSize=12;startSize=8;endSize=8;curved=1;entryX=0.5;entryY=1;entryDx=0;entryDy=0;exitX=0.5;exitY=0;exitDx=0;exitDy=0;" edge="1" parent="1" source="eRHPwqO124K7hBbh6g_9-1" target="eRHPwqO124K7hBbh6g_9-5">
          <mxGeometry width="50" height="50" relative="1" as="geometry">
            <mxPoint x="175" y="225" as="sourcePoint" />
            <mxPoint x="225" y="175" as="targetPoint" />
          </mxGeometry>
        </mxCell>
        <mxCell id="eRHPwqO124K7hBbh6g_9-8" value="cím" style="ellipse;whiteSpace=wrap;html=1;align=center;" vertex="1" parent="1">
          <mxGeometry x="-753" y="111" width="100" height="40" as="geometry" />
        </mxCell>
        <mxCell id="eRHPwqO124K7hBbh6g_9-9" value="tipus" style="ellipse;whiteSpace=wrap;html=1;align=center;" vertex="1" parent="1">
          <mxGeometry x="-613" y="111" width="100" height="40" as="geometry" />
        </mxCell>
        <mxCell id="eRHPwqO124K7hBbh6g_9-10" value="név" style="ellipse;whiteSpace=wrap;html=1;align=center;" vertex="1" parent="1">
          <mxGeometry x="-883" y="111" width="100" height="40" as="geometry" />
        </mxCell>
        <mxCell id="eRHPwqO124K7hBbh6g_9-11" value="város" style="ellipse;whiteSpace=wrap;html=1;align=center;" vertex="1" parent="1">
          <mxGeometry x="-863" y="271" width="100" height="40" as="geometry" />
        </mxCell>
        <mxCell id="eRHPwqO124K7hBbh6g_9-12" value="utca" style="ellipse;whiteSpace=wrap;html=1;align=center;" vertex="1" parent="1">
          <mxGeometry x="-753" y="271" width="100" height="40" as="geometry" />
        </mxCell>
        <mxCell id="eRHPwqO124K7hBbh6g_9-13" value="házszám" style="ellipse;whiteSpace=wrap;html=1;align=center;" vertex="1" parent="1">
          <mxGeometry x="-643" y="271" width="100" height="40" as="geometry" />
        </mxCell>
        <mxCell id="eRHPwqO124K7hBbh6g_9-14" value="" style="endArrow=none;html=1;rounded=0;exitX=0.5;exitY=1;exitDx=0;exitDy=0;entryX=0.5;entryY=0;entryDx=0;entryDy=0;" edge="1" parent="1" source="eRHPwqO124K7hBbh6g_9-8" target="eRHPwqO124K7hBbh6g_9-11">
          <mxGeometry width="50" height="50" relative="1" as="geometry">
            <mxPoint x="80" y="66" as="sourcePoint" />
            <mxPoint x="-170" y="96" as="targetPoint" />
          </mxGeometry>
        </mxCell>
        <mxCell id="eRHPwqO124K7hBbh6g_9-15" value="" style="endArrow=none;html=1;rounded=0;exitX=0.5;exitY=0;exitDx=0;exitDy=0;entryX=0.5;entryY=1;entryDx=0;entryDy=0;" edge="1" parent="1" source="eRHPwqO124K7hBbh6g_9-12" target="eRHPwqO124K7hBbh6g_9-8">
          <mxGeometry width="50" height="50" relative="1" as="geometry">
            <mxPoint x="90" y="76" as="sourcePoint" />
            <mxPoint x="-160" y="106" as="targetPoint" />
          </mxGeometry>
        </mxCell>
        <mxCell id="eRHPwqO124K7hBbh6g_9-16" value="" style="endArrow=none;html=1;rounded=0;exitX=0.5;exitY=0;exitDx=0;exitDy=0;entryX=0.5;entryY=1;entryDx=0;entryDy=0;" edge="1" parent="1" source="eRHPwqO124K7hBbh6g_9-13" target="eRHPwqO124K7hBbh6g_9-8">
          <mxGeometry width="50" height="50" relative="1" as="geometry">
            <mxPoint x="100" y="86" as="sourcePoint" />
            <mxPoint x="-150" y="116" as="targetPoint" />
          </mxGeometry>
        </mxCell>
        <mxCell id="eRHPwqO124K7hBbh6g_9-17" value="" style="rounded=0;whiteSpace=wrap;html=1;rotation=90;" vertex="1" parent="1">
          <mxGeometry x="-840.5" y="351" width="55" height="40" as="geometry" />
        </mxCell>
        <mxCell id="eRHPwqO124K7hBbh6g_9-18" value="" style="rounded=0;whiteSpace=wrap;html=1;rotation=90;" vertex="1" parent="1">
          <mxGeometry x="-730.5" y="351" width="55" height="40" as="geometry" />
        </mxCell>
        <mxCell id="eRHPwqO124K7hBbh6g_9-19" value="" style="rounded=0;whiteSpace=wrap;html=1;rotation=90;" vertex="1" parent="1">
          <mxGeometry x="-620.5" y="351" width="55" height="40" as="geometry" />
        </mxCell>
        <mxCell id="eRHPwqO124K7hBbh6g_9-20" value="" style="rounded=0;whiteSpace=wrap;html=1;rotation=90;" vertex="1" parent="1">
          <mxGeometry x="-860.5" y="181" width="55" height="40" as="geometry" />
        </mxCell>
        <mxCell id="eRHPwqO124K7hBbh6g_9-21" value="" style="rounded=0;whiteSpace=wrap;html=1;rotation=90;" vertex="1" parent="1">
          <mxGeometry x="-590.5" y="181" width="55" height="40" as="geometry" />
        </mxCell>
        <mxCell id="eRHPwqO124K7hBbh6g_9-22" value="" style="endArrow=none;html=1;rounded=0;exitX=0.5;exitY=1;exitDx=0;exitDy=0;entryX=0;entryY=0.5;entryDx=0;entryDy=0;" edge="1" parent="1" source="eRHPwqO124K7hBbh6g_9-12" target="eRHPwqO124K7hBbh6g_9-18">
          <mxGeometry width="50" height="50" relative="1" as="geometry">
            <mxPoint x="40" y="226" as="sourcePoint" />
            <mxPoint x="40" y="146" as="targetPoint" />
          </mxGeometry>
        </mxCell>
        <mxCell id="eRHPwqO124K7hBbh6g_9-23" value="" style="endArrow=none;html=1;rounded=0;exitX=0.5;exitY=1;exitDx=0;exitDy=0;entryX=0;entryY=0.5;entryDx=0;entryDy=0;" edge="1" parent="1" source="eRHPwqO124K7hBbh6g_9-11" target="eRHPwqO124K7hBbh6g_9-17">
          <mxGeometry width="50" height="50" relative="1" as="geometry">
            <mxPoint x="50" y="236" as="sourcePoint" />
            <mxPoint x="50" y="156" as="targetPoint" />
          </mxGeometry>
        </mxCell>
        <mxCell id="eRHPwqO124K7hBbh6g_9-24" value="" style="endArrow=none;html=1;rounded=0;exitX=0.5;exitY=1;exitDx=0;exitDy=0;entryX=0;entryY=0.5;entryDx=0;entryDy=0;" edge="1" parent="1" source="eRHPwqO124K7hBbh6g_9-13" target="eRHPwqO124K7hBbh6g_9-19">
          <mxGeometry width="50" height="50" relative="1" as="geometry">
            <mxPoint x="60" y="246" as="sourcePoint" />
            <mxPoint x="60" y="166" as="targetPoint" />
          </mxGeometry>
        </mxCell>
        <mxCell id="eRHPwqO124K7hBbh6g_9-25" value="" style="endArrow=none;html=1;rounded=0;exitX=0;exitY=0.5;exitDx=0;exitDy=0;entryX=0.5;entryY=1;entryDx=0;entryDy=0;" edge="1" parent="1" source="eRHPwqO124K7hBbh6g_9-20" target="eRHPwqO124K7hBbh6g_9-10">
          <mxGeometry width="50" height="50" relative="1" as="geometry">
            <mxPoint x="70" y="256" as="sourcePoint" />
            <mxPoint x="70" y="176" as="targetPoint" />
          </mxGeometry>
        </mxCell>
        <mxCell id="eRHPwqO124K7hBbh6g_9-26" value="" style="endArrow=none;html=1;rounded=0;exitX=0;exitY=0.5;exitDx=0;exitDy=0;entryX=0.5;entryY=1;entryDx=0;entryDy=0;" edge="1" parent="1" source="eRHPwqO124K7hBbh6g_9-21" target="eRHPwqO124K7hBbh6g_9-9">
          <mxGeometry width="50" height="50" relative="1" as="geometry">
            <mxPoint x="80" y="266" as="sourcePoint" />
            <mxPoint x="80" y="186" as="targetPoint" />
          </mxGeometry>
        </mxCell>
        <mxCell id="eRHPwqO124K7hBbh6g_9-27" value="" style="endArrow=none;html=1;rounded=0;fontSize=12;startSize=8;endSize=8;curved=1;entryX=0.5;entryY=1;entryDx=0;entryDy=0;exitX=0.5;exitY=0;exitDx=0;exitDy=0;" edge="1" parent="1" source="eRHPwqO124K7hBbh6g_9-8" target="eRHPwqO124K7hBbh6g_9-1">
          <mxGeometry width="50" height="50" relative="1" as="geometry">
            <mxPoint x="-11" y="225" as="sourcePoint" />
            <mxPoint x="39" y="175" as="targetPoint" />
          </mxGeometry>
        </mxCell>
        <mxCell id="eRHPwqO124K7hBbh6g_9-28" value="" style="endArrow=none;html=1;rounded=0;fontSize=12;startSize=8;endSize=8;curved=1;entryX=0.5;entryY=1;entryDx=0;entryDy=0;exitX=0.5;exitY=0;exitDx=0;exitDy=0;" edge="1" parent="1" source="eRHPwqO124K7hBbh6g_9-10" target="eRHPwqO124K7hBbh6g_9-1">
          <mxGeometry width="50" height="50" relative="1" as="geometry">
            <mxPoint x="40" y="106" as="sourcePoint" />
            <mxPoint x="45" y="67" as="targetPoint" />
          </mxGeometry>
        </mxCell>
        <mxCell id="eRHPwqO124K7hBbh6g_9-29" value="" style="endArrow=none;html=1;rounded=0;fontSize=12;startSize=8;endSize=8;curved=1;entryX=0.5;entryY=1;entryDx=0;entryDy=0;exitX=0.5;exitY=0;exitDx=0;exitDy=0;" edge="1" parent="1" source="eRHPwqO124K7hBbh6g_9-9" target="eRHPwqO124K7hBbh6g_9-1">
          <mxGeometry width="50" height="50" relative="1" as="geometry">
            <mxPoint x="-90" y="106" as="sourcePoint" />
            <mxPoint x="45" y="67" as="targetPoint" />
          </mxGeometry>
        </mxCell>
        <mxCell id="eRHPwqO124K7hBbh6g_9-30" value="&lt;u&gt;Cid&lt;/u&gt;" style="rhombus;whiteSpace=wrap;html=1;" vertex="1" parent="1">
          <mxGeometry x="-1029" y="77" width="80" height="80" as="geometry" />
        </mxCell>
        <mxCell id="eRHPwqO124K7hBbh6g_9-31" value="" style="endArrow=none;html=1;rounded=0;entryX=0.5;entryY=0;entryDx=0;entryDy=0;exitX=0;exitY=0.5;exitDx=0;exitDy=0;" edge="1" parent="1" source="eRHPwqO124K7hBbh6g_9-1" target="eRHPwqO124K7hBbh6g_9-30">
          <mxGeometry width="50" height="50" relative="1" as="geometry">
            <mxPoint x="-32" y="30" as="sourcePoint" />
            <mxPoint x="420" y="248" as="targetPoint" />
          </mxGeometry>
        </mxCell>
        <mxCell id="eRHPwqO124K7hBbh6g_9-32" value="TárRendszer" style="ellipse;whiteSpace=wrap;html=1;" vertex="1" parent="1">
          <mxGeometry x="-210" y="20" width="120" height="50" as="geometry" />
        </mxCell>
        <mxCell id="eRHPwqO124K7hBbh6g_9-33" value="Tár" style="ellipse;whiteSpace=wrap;html=1;" vertex="1" parent="1">
          <mxGeometry x="-205" y="26" width="109" height="38" as="geometry" />
        </mxCell>
        <mxCell id="eRHPwqO124K7hBbh6g_9-34" value="érkezésidátum" style="ellipse;whiteSpace=wrap;html=1;align=center;" vertex="1" parent="1">
          <mxGeometry x="-59" y="111" width="100" height="40" as="geometry" />
        </mxCell>
        <mxCell id="eRHPwqO124K7hBbh6g_9-35" value="név" style="ellipse;whiteSpace=wrap;html=1;align=center;" vertex="1" parent="1">
          <mxGeometry x="-329" y="111" width="100" height="40" as="geometry" />
        </mxCell>
        <mxCell id="eRHPwqO124K7hBbh6g_9-36" value="polcszám" style="ellipse;whiteSpace=wrap;html=1;align=center;" vertex="1" parent="1">
          <mxGeometry x="-196" y="111" width="100" height="40" as="geometry" />
        </mxCell>
        <mxCell id="eRHPwqO124K7hBbh6g_9-37" value="" style="rounded=0;whiteSpace=wrap;html=1;rotation=90;" vertex="1" parent="1">
          <mxGeometry x="-173.5" y="181" width="55" height="40" as="geometry" />
        </mxCell>
        <mxCell id="eRHPwqO124K7hBbh6g_9-38" value="" style="rounded=0;whiteSpace=wrap;html=1;rotation=90;" vertex="1" parent="1">
          <mxGeometry x="-306.5" y="181" width="55" height="40" as="geometry" />
        </mxCell>
        <mxCell id="eRHPwqO124K7hBbh6g_9-39" value="" style="rounded=0;whiteSpace=wrap;html=1;rotation=90;" vertex="1" parent="1">
          <mxGeometry x="-36.5" y="181" width="55" height="40" as="geometry" />
        </mxCell>
        <mxCell id="eRHPwqO124K7hBbh6g_9-40" value="&lt;u&gt;Sid&lt;/u&gt;" style="rhombus;whiteSpace=wrap;html=1;" vertex="1" parent="1">
          <mxGeometry x="-421" y="89" width="80" height="80" as="geometry" />
        </mxCell>
        <mxCell id="eRHPwqO124K7hBbh6g_9-41" value="" style="endArrow=none;dashed=1;html=1;rounded=0;fontSize=12;entryX=0;entryY=0.5;entryDx=0;entryDy=0;exitX=0.5;exitY=1;exitDx=0;exitDy=0;edgeStyle=orthogonalEdgeStyle;startArrow=classic;startFill=1;" edge="1" parent="1" source="eRHPwqO124K7hBbh6g_9-30" target="eRHPwqO124K7hBbh6g_9-40">
          <mxGeometry width="50" height="50" relative="1" as="geometry">
            <mxPoint x="-996.2105263157895" y="167" as="sourcePoint" />
            <mxPoint x="-532" y="198" as="targetPoint" />
            <Array as="points">
              <mxPoint x="-989" y="431" />
              <mxPoint x="-421" y="431" />
            </Array>
          </mxGeometry>
        </mxCell>
        <mxCell id="eRHPwqO124K7hBbh6g_9-42" value="" style="endArrow=none;html=1;rounded=0;fontSize=12;startSize=8;endSize=8;curved=1;entryX=0.5;entryY=1;entryDx=0;entryDy=0;exitX=0;exitY=0.5;exitDx=0;exitDy=0;" edge="1" parent="1" source="eRHPwqO124K7hBbh6g_9-38" target="eRHPwqO124K7hBbh6g_9-35">
          <mxGeometry width="50" height="50" relative="1" as="geometry">
            <mxPoint x="-209" y="248" as="sourcePoint" />
            <mxPoint x="-159" y="198" as="targetPoint" />
          </mxGeometry>
        </mxCell>
        <mxCell id="eRHPwqO124K7hBbh6g_9-43" value="" style="endArrow=none;html=1;rounded=0;fontSize=12;startSize=8;endSize=8;curved=1;entryX=0.5;entryY=1;entryDx=0;entryDy=0;exitX=0;exitY=0.5;exitDx=0;exitDy=0;" edge="1" parent="1" source="eRHPwqO124K7hBbh6g_9-37" target="eRHPwqO124K7hBbh6g_9-36">
          <mxGeometry width="50" height="50" relative="1" as="geometry">
            <mxPoint x="-269" y="184" as="sourcePoint" />
            <mxPoint x="-269" y="161" as="targetPoint" />
          </mxGeometry>
        </mxCell>
        <mxCell id="eRHPwqO124K7hBbh6g_9-44" value="" style="endArrow=none;html=1;rounded=0;fontSize=12;startSize=8;endSize=8;curved=1;entryX=0.5;entryY=1;entryDx=0;entryDy=0;exitX=0;exitY=0.5;exitDx=0;exitDy=0;" edge="1" parent="1" source="eRHPwqO124K7hBbh6g_9-39" target="eRHPwqO124K7hBbh6g_9-34">
          <mxGeometry width="50" height="50" relative="1" as="geometry">
            <mxPoint x="-133" y="184" as="sourcePoint" />
            <mxPoint x="-136" y="161" as="targetPoint" />
          </mxGeometry>
        </mxCell>
        <mxCell id="eRHPwqO124K7hBbh6g_9-45" value="" style="endArrow=none;html=1;rounded=0;fontSize=12;startSize=8;endSize=8;curved=1;entryX=0.5;entryY=1;entryDx=0;entryDy=0;exitX=0.5;exitY=0;exitDx=0;exitDy=0;" edge="1" parent="1" source="eRHPwqO124K7hBbh6g_9-36" target="eRHPwqO124K7hBbh6g_9-32">
          <mxGeometry width="50" height="50" relative="1" as="geometry">
            <mxPoint x="-123" y="194" as="sourcePoint" />
            <mxPoint x="-126" y="171" as="targetPoint" />
          </mxGeometry>
        </mxCell>
        <mxCell id="eRHPwqO124K7hBbh6g_9-46" value="" style="endArrow=none;html=1;rounded=0;fontSize=12;startSize=8;endSize=8;curved=1;entryX=0.5;entryY=1;entryDx=0;entryDy=0;exitX=0.5;exitY=0;exitDx=0;exitDy=0;" edge="1" parent="1" source="eRHPwqO124K7hBbh6g_9-35" target="eRHPwqO124K7hBbh6g_9-32">
          <mxGeometry width="50" height="50" relative="1" as="geometry">
            <mxPoint x="-136" y="121" as="sourcePoint" />
            <mxPoint x="-140" y="80" as="targetPoint" />
          </mxGeometry>
        </mxCell>
        <mxCell id="eRHPwqO124K7hBbh6g_9-47" value="" style="endArrow=none;html=1;rounded=0;fontSize=12;startSize=8;endSize=8;curved=1;entryX=0.5;entryY=1;entryDx=0;entryDy=0;exitX=0.5;exitY=0;exitDx=0;exitDy=0;" edge="1" parent="1" source="eRHPwqO124K7hBbh6g_9-34" target="eRHPwqO124K7hBbh6g_9-32">
          <mxGeometry width="50" height="50" relative="1" as="geometry">
            <mxPoint x="-269" y="121" as="sourcePoint" />
            <mxPoint x="-140" y="80" as="targetPoint" />
          </mxGeometry>
        </mxCell>
        <mxCell id="eRHPwqO124K7hBbh6g_9-48" value="" style="endArrow=none;html=1;rounded=0;fontSize=12;startSize=8;endSize=8;curved=1;entryX=0.5;entryY=0;entryDx=0;entryDy=0;exitX=0.5;exitY=1;exitDx=0;exitDy=0;" edge="1" parent="1" source="eRHPwqO124K7hBbh6g_9-5" target="eRHPwqO124K7hBbh6g_9-32">
          <mxGeometry width="50" height="50" relative="1" as="geometry">
            <mxPoint x="1" y="121" as="sourcePoint" />
            <mxPoint x="-140" y="80" as="targetPoint" />
          </mxGeometry>
        </mxCell>
        <mxCell id="eRHPwqO124K7hBbh6g_9-49" value="" style="endArrow=none;html=1;rounded=0;fontSize=12;startSize=8;endSize=8;curved=1;entryX=0;entryY=0.5;entryDx=0;entryDy=0;exitX=0.5;exitY=0;exitDx=0;exitDy=0;" edge="1" parent="1" source="eRHPwqO124K7hBbh6g_9-40" target="eRHPwqO124K7hBbh6g_9-32">
          <mxGeometry width="50" height="50" relative="1" as="geometry">
            <mxPoint x="-269" y="121" as="sourcePoint" />
            <mxPoint x="-140" y="80" as="targetPoint" />
          </mxGeometry>
        </mxCell>
        <mxCell id="eRHPwqO124K7hBbh6g_9-50" style="edgeStyle=none;curved=1;rounded=0;orthogonalLoop=1;jettySize=auto;html=1;exitX=0.5;exitY=0;exitDx=0;exitDy=0;entryX=0.5;entryY=1;entryDx=0;entryDy=0;fontSize=12;startSize=8;endSize=8;endArrow=none;startFill=0;" edge="1" parent="1" source="eRHPwqO124K7hBbh6g_9-51" target="eRHPwqO124K7hBbh6g_9-5">
          <mxGeometry relative="1" as="geometry" />
        </mxCell>
        <mxCell id="eRHPwqO124K7hBbh6g_9-51" value="TárRendszer" style="ellipse;whiteSpace=wrap;html=1;" vertex="1" parent="1">
          <mxGeometry x="264" y="16.5" width="120" height="50" as="geometry" />
        </mxCell>
        <mxCell id="eRHPwqO124K7hBbh6g_9-52" value="főfelügyelő" style="ellipse;whiteSpace=wrap;html=1;" vertex="1" parent="1">
          <mxGeometry x="269" y="22.5" width="108" height="38" as="geometry" />
        </mxCell>
        <mxCell id="eRHPwqO124K7hBbh6g_9-53" value="név" style="ellipse;whiteSpace=wrap;html=1;align=center;" vertex="1" parent="1">
          <mxGeometry x="145" y="107.5" width="100" height="40" as="geometry" />
        </mxCell>
        <mxCell id="eRHPwqO124K7hBbh6g_9-54" value="" style="rounded=0;whiteSpace=wrap;html=1;rotation=90;" vertex="1" parent="1">
          <mxGeometry x="300.5" y="177.5" width="55" height="40" as="geometry" />
        </mxCell>
        <mxCell id="eRHPwqO124K7hBbh6g_9-55" value="" style="rounded=0;whiteSpace=wrap;html=1;rotation=90;" vertex="1" parent="1">
          <mxGeometry x="167.5" y="177.5" width="55" height="40" as="geometry" />
        </mxCell>
        <mxCell id="eRHPwqO124K7hBbh6g_9-56" value="&lt;u&gt;Fid&lt;/u&gt;" style="rhombus;whiteSpace=wrap;html=1;" vertex="1" parent="1">
          <mxGeometry x="53" y="85.5" width="80" height="80" as="geometry" />
        </mxCell>
        <mxCell id="eRHPwqO124K7hBbh6g_9-57" value="" style="endArrow=none;html=1;rounded=0;fontSize=12;startSize=8;endSize=8;curved=1;entryX=0.5;entryY=1;entryDx=0;entryDy=0;exitX=0;exitY=0.5;exitDx=0;exitDy=0;" edge="1" parent="1" source="eRHPwqO124K7hBbh6g_9-55" target="eRHPwqO124K7hBbh6g_9-53">
          <mxGeometry width="50" height="50" relative="1" as="geometry">
            <mxPoint x="265" y="244.5" as="sourcePoint" />
            <mxPoint x="315" y="194.5" as="targetPoint" />
          </mxGeometry>
        </mxCell>
        <mxCell id="eRHPwqO124K7hBbh6g_9-58" value="" style="endArrow=none;html=1;rounded=0;fontSize=12;startSize=8;endSize=8;curved=1;entryX=0.5;entryY=1;entryDx=0;entryDy=0;exitX=0;exitY=0.5;exitDx=0;exitDy=0;" edge="1" parent="1" source="eRHPwqO124K7hBbh6g_9-54" target="eRHPwqO124K7hBbh6g_9-63">
          <mxGeometry width="50" height="50" relative="1" as="geometry">
            <mxPoint x="205" y="180.5" as="sourcePoint" />
            <mxPoint x="328" y="147.5" as="targetPoint" />
          </mxGeometry>
        </mxCell>
        <mxCell id="eRHPwqO124K7hBbh6g_9-59" value="" style="endArrow=none;html=1;rounded=0;fontSize=12;startSize=8;endSize=8;curved=1;entryX=0.5;entryY=1;entryDx=0;entryDy=0;exitX=0.5;exitY=0;exitDx=0;exitDy=0;" edge="1" parent="1" source="eRHPwqO124K7hBbh6g_9-63" target="eRHPwqO124K7hBbh6g_9-51">
          <mxGeometry width="50" height="50" relative="1" as="geometry">
            <mxPoint x="328" y="107.5" as="sourcePoint" />
            <mxPoint x="348" y="167.5" as="targetPoint" />
          </mxGeometry>
        </mxCell>
        <mxCell id="eRHPwqO124K7hBbh6g_9-60" value="" style="endArrow=none;html=1;rounded=0;fontSize=12;startSize=8;endSize=8;curved=1;entryX=0.5;entryY=1;entryDx=0;entryDy=0;exitX=0.5;exitY=0;exitDx=0;exitDy=0;" edge="1" parent="1" source="eRHPwqO124K7hBbh6g_9-53" target="eRHPwqO124K7hBbh6g_9-51">
          <mxGeometry width="50" height="50" relative="1" as="geometry">
            <mxPoint x="338" y="117.5" as="sourcePoint" />
            <mxPoint x="334" y="76.5" as="targetPoint" />
          </mxGeometry>
        </mxCell>
        <mxCell id="eRHPwqO124K7hBbh6g_9-61" value="" style="endArrow=none;html=1;rounded=0;fontSize=12;startSize=8;endSize=8;curved=1;entryX=0;entryY=0.5;entryDx=0;entryDy=0;exitX=0.5;exitY=0;exitDx=0;exitDy=0;" edge="1" parent="1" source="eRHPwqO124K7hBbh6g_9-56" target="eRHPwqO124K7hBbh6g_9-51">
          <mxGeometry width="50" height="50" relative="1" as="geometry">
            <mxPoint x="205" y="117.5" as="sourcePoint" />
            <mxPoint x="334" y="76.5" as="targetPoint" />
          </mxGeometry>
        </mxCell>
        <mxCell id="eRHPwqO124K7hBbh6g_9-62" value="" style="endArrow=none;dashed=1;html=1;rounded=0;fontSize=12;entryX=0.5;entryY=1;entryDx=0;entryDy=0;exitX=1;exitY=0.5;exitDx=0;exitDy=0;edgeStyle=orthogonalEdgeStyle;startArrow=classic;startFill=1;" edge="1" parent="1" source="eRHPwqO124K7hBbh6g_9-40" target="eRHPwqO124K7hBbh6g_9-56">
          <mxGeometry width="50" height="50" relative="1" as="geometry">
            <mxPoint x="-285" y="169" as="sourcePoint" />
            <mxPoint x="283" y="221" as="targetPoint" />
            <Array as="points">
              <mxPoint x="-341" y="267" />
              <mxPoint x="93" y="267" />
            </Array>
          </mxGeometry>
        </mxCell>
        <mxCell id="eRHPwqO124K7hBbh6g_9-63" value="TárRendszer" style="ellipse;whiteSpace=wrap;html=1;fillColor=light-dark(#c0c0c0, #ededed);" vertex="1" parent="1">
          <mxGeometry x="269" y="97.5" width="120" height="50" as="geometry" />
        </mxCell>
        <mxCell id="eRHPwqO124K7hBbh6g_9-64" value="telefon" style="ellipse;whiteSpace=wrap;html=1;fillColor=light-dark(#c0c0c0, #ededed);" vertex="1" parent="1">
          <mxGeometry x="274" y="103.5" width="108" height="38" as="geometry" />
        </mxCell>
        <mxCell id="eRHPwqO124K7hBbh6g_9-65" style="edgeStyle=none;curved=1;rounded=0;orthogonalLoop=1;jettySize=auto;html=1;exitX=0.5;exitY=1;exitDx=0;exitDy=0;entryX=0.5;entryY=0;entryDx=0;entryDy=0;fontSize=12;startSize=8;endSize=8;endArrow=none;startFill=0;" edge="1" parent="1" source="eRHPwqO124K7hBbh6g_9-66" target="eRHPwqO124K7hBbh6g_9-84">
          <mxGeometry relative="1" as="geometry" />
        </mxCell>
        <mxCell id="eRHPwqO124K7hBbh6g_9-66" value="TárRendszer" style="ellipse;whiteSpace=wrap;html=1;" vertex="1" parent="1">
          <mxGeometry x="628" y="16.5" width="120" height="50" as="geometry" />
        </mxCell>
        <mxCell id="eRHPwqO124K7hBbh6g_9-67" value="termék" style="ellipse;whiteSpace=wrap;html=1;" vertex="1" parent="1">
          <mxGeometry x="633" y="22.5" width="108" height="38" as="geometry" />
        </mxCell>
        <mxCell id="eRHPwqO124K7hBbh6g_9-68" value="név" style="ellipse;whiteSpace=wrap;html=1;align=center;" vertex="1" parent="1">
          <mxGeometry x="509" y="107.5" width="100" height="40" as="geometry" />
        </mxCell>
        <mxCell id="eRHPwqO124K7hBbh6g_9-69" value="" style="rounded=0;whiteSpace=wrap;html=1;rotation=90;" vertex="1" parent="1">
          <mxGeometry x="664.5" y="177.5" width="55" height="40" as="geometry" />
        </mxCell>
        <mxCell id="eRHPwqO124K7hBbh6g_9-70" value="" style="rounded=0;whiteSpace=wrap;html=1;rotation=90;" vertex="1" parent="1">
          <mxGeometry x="531.5" y="177.5" width="55" height="40" as="geometry" />
        </mxCell>
        <mxCell id="eRHPwqO124K7hBbh6g_9-71" value="&lt;u&gt;Iid&lt;/u&gt;" style="rhombus;whiteSpace=wrap;html=1;" vertex="1" parent="1">
          <mxGeometry x="417" y="85.5" width="80" height="80" as="geometry" />
        </mxCell>
        <mxCell id="eRHPwqO124K7hBbh6g_9-72" value="" style="endArrow=none;html=1;rounded=0;fontSize=12;startSize=8;endSize=8;curved=1;entryX=0.5;entryY=1;entryDx=0;entryDy=0;exitX=0;exitY=0.5;exitDx=0;exitDy=0;" edge="1" parent="1" source="eRHPwqO124K7hBbh6g_9-70" target="eRHPwqO124K7hBbh6g_9-68">
          <mxGeometry width="50" height="50" relative="1" as="geometry">
            <mxPoint x="629" y="244.5" as="sourcePoint" />
            <mxPoint x="679" y="194.5" as="targetPoint" />
          </mxGeometry>
        </mxCell>
        <mxCell id="eRHPwqO124K7hBbh6g_9-73" value="" style="endArrow=none;html=1;rounded=0;fontSize=12;startSize=8;endSize=8;curved=1;entryX=0.5;entryY=1;entryDx=0;entryDy=0;exitX=0;exitY=0.5;exitDx=0;exitDy=0;" edge="1" parent="1" source="eRHPwqO124K7hBbh6g_9-69" target="eRHPwqO124K7hBbh6g_9-77">
          <mxGeometry width="50" height="50" relative="1" as="geometry">
            <mxPoint x="569" y="180.5" as="sourcePoint" />
            <mxPoint x="692" y="147.5" as="targetPoint" />
          </mxGeometry>
        </mxCell>
        <mxCell id="eRHPwqO124K7hBbh6g_9-74" value="" style="endArrow=none;html=1;rounded=0;fontSize=12;startSize=8;endSize=8;curved=1;entryX=0.5;entryY=1;entryDx=0;entryDy=0;exitX=0.5;exitY=0;exitDx=0;exitDy=0;" edge="1" parent="1" source="eRHPwqO124K7hBbh6g_9-77" target="eRHPwqO124K7hBbh6g_9-66">
          <mxGeometry width="50" height="50" relative="1" as="geometry">
            <mxPoint x="692" y="107.5" as="sourcePoint" />
            <mxPoint x="712" y="167.5" as="targetPoint" />
          </mxGeometry>
        </mxCell>
        <mxCell id="eRHPwqO124K7hBbh6g_9-75" value="" style="endArrow=none;html=1;rounded=0;fontSize=12;startSize=8;endSize=8;curved=1;entryX=0.5;entryY=1;entryDx=0;entryDy=0;exitX=0.5;exitY=0;exitDx=0;exitDy=0;" edge="1" parent="1" source="eRHPwqO124K7hBbh6g_9-68" target="eRHPwqO124K7hBbh6g_9-66">
          <mxGeometry width="50" height="50" relative="1" as="geometry">
            <mxPoint x="702" y="117.5" as="sourcePoint" />
            <mxPoint x="698" y="76.5" as="targetPoint" />
          </mxGeometry>
        </mxCell>
        <mxCell id="eRHPwqO124K7hBbh6g_9-76" value="" style="endArrow=none;html=1;rounded=0;fontSize=12;startSize=8;endSize=8;curved=1;entryX=0;entryY=0.5;entryDx=0;entryDy=0;exitX=0.5;exitY=0;exitDx=0;exitDy=0;" edge="1" parent="1" source="eRHPwqO124K7hBbh6g_9-71" target="eRHPwqO124K7hBbh6g_9-66">
          <mxGeometry width="50" height="50" relative="1" as="geometry">
            <mxPoint x="569" y="117.5" as="sourcePoint" />
            <mxPoint x="698" y="76.5" as="targetPoint" />
          </mxGeometry>
        </mxCell>
        <mxCell id="eRHPwqO124K7hBbh6g_9-77" value="kategória" style="ellipse;whiteSpace=wrap;html=1;fillColor=light-dark(#FFFFFF,#EDEDED);" vertex="1" parent="1">
          <mxGeometry x="633" y="97.5" width="120" height="50" as="geometry" />
        </mxCell>
        <mxCell id="eRHPwqO124K7hBbh6g_9-78" value="" style="rounded=0;whiteSpace=wrap;html=1;rotation=90;" vertex="1" parent="1">
          <mxGeometry x="795.5" y="181" width="55" height="40" as="geometry" />
        </mxCell>
        <mxCell id="eRHPwqO124K7hBbh6g_9-79" value="" style="endArrow=none;html=1;rounded=0;fontSize=12;startSize=8;endSize=8;curved=1;entryX=0.5;entryY=1;entryDx=0;entryDy=0;exitX=0;exitY=0.5;exitDx=0;exitDy=0;" edge="1" parent="1" source="eRHPwqO124K7hBbh6g_9-78" target="eRHPwqO124K7hBbh6g_9-81">
          <mxGeometry width="50" height="50" relative="1" as="geometry">
            <mxPoint x="699" y="183.5" as="sourcePoint" />
            <mxPoint x="822" y="150.5" as="targetPoint" />
          </mxGeometry>
        </mxCell>
        <mxCell id="eRHPwqO124K7hBbh6g_9-80" value="" style="endArrow=none;html=1;rounded=0;fontSize=12;startSize=8;endSize=8;curved=1;entryX=0.5;entryY=1;entryDx=0;entryDy=0;exitX=0.5;exitY=0;exitDx=0;exitDy=0;" edge="1" parent="1" source="eRHPwqO124K7hBbh6g_9-81" target="eRHPwqO124K7hBbh6g_9-66">
          <mxGeometry width="50" height="50" relative="1" as="geometry">
            <mxPoint x="822" y="110.5" as="sourcePoint" />
            <mxPoint x="818" y="70" as="targetPoint" />
          </mxGeometry>
        </mxCell>
        <mxCell id="eRHPwqO124K7hBbh6g_9-81" value="menyiség" style="ellipse;whiteSpace=wrap;html=1;fillColor=light-dark(#FFFFFF,#EDEDED);" vertex="1" parent="1">
          <mxGeometry x="763" y="100.5" width="120" height="50" as="geometry" />
        </mxCell>
        <mxCell id="eRHPwqO124K7hBbh6g_9-82" value="" style="rounded=0;whiteSpace=wrap;html=1;rotation=90;" vertex="1" parent="1">
          <mxGeometry x="923.5" y="181" width="55" height="40" as="geometry" />
        </mxCell>
        <mxCell id="eRHPwqO124K7hBbh6g_9-83" value="" style="endArrow=none;html=1;rounded=0;fontSize=12;startSize=8;endSize=8;curved=1;entryX=0.5;entryY=1;entryDx=0;entryDy=0;exitX=0;exitY=0.5;exitDx=0;exitDy=0;" edge="1" parent="1" source="eRHPwqO124K7hBbh6g_9-82" target="eRHPwqO124K7hBbh6g_9-84">
          <mxGeometry width="50" height="50" relative="1" as="geometry">
            <mxPoint x="827" y="183.5" as="sourcePoint" />
            <mxPoint x="950" y="150.5" as="targetPoint" />
          </mxGeometry>
        </mxCell>
        <mxCell id="eRHPwqO124K7hBbh6g_9-84" value="ár" style="ellipse;whiteSpace=wrap;html=1;fillColor=light-dark(#FFFFFF,#EDEDED);" vertex="1" parent="1">
          <mxGeometry x="891" y="100.5" width="120" height="50" as="geometry" />
        </mxCell>
        <mxCell id="eRHPwqO124K7hBbh6g_9-85" value="" style="endArrow=classic;dashed=1;html=1;rounded=0;fontSize=12;startSize=8;endSize=8;entryX=1;entryY=1;entryDx=0;entryDy=0;exitX=0.5;exitY=1;exitDx=0;exitDy=0;edgeStyle=orthogonalEdgeStyle;startArrow=none;startFill=0;endFill=1;" edge="1" parent="1" source="eRHPwqO124K7hBbh6g_9-71" target="eRHPwqO124K7hBbh6g_9-40">
          <mxGeometry width="50" height="50" relative="1" as="geometry">
            <mxPoint x="-327" y="248" as="sourcePoint" />
            <mxPoint x="-277" y="198" as="targetPoint" />
            <Array as="points">
              <mxPoint x="457" y="350" />
              <mxPoint x="-361" y="350" />
            </Array>
          </mxGeometry>
        </mxCell>
        <mxCell id="eRHPwqO124K7hBbh6g_9-86" value="TárRendszer" style="ellipse;whiteSpace=wrap;html=1;" vertex="1" parent="1">
          <mxGeometry x="1262" y="16.5" width="120" height="50" as="geometry" />
        </mxCell>
        <mxCell id="eRHPwqO124K7hBbh6g_9-87" value="Szállítás" style="ellipse;whiteSpace=wrap;html=1;" vertex="1" parent="1">
          <mxGeometry x="1267" y="22.5" width="109" height="38" as="geometry" />
        </mxCell>
        <mxCell id="eRHPwqO124K7hBbh6g_9-88" value="statusz" style="ellipse;whiteSpace=wrap;html=1;align=center;" vertex="1" parent="1">
          <mxGeometry x="1201" y="103" width="100" height="40" as="geometry" />
        </mxCell>
        <mxCell id="eRHPwqO124K7hBbh6g_9-89" value="erkezesidatum" style="ellipse;whiteSpace=wrap;html=1;align=center;" vertex="1" parent="1">
          <mxGeometry x="1334" y="100.5" width="100" height="40" as="geometry" />
        </mxCell>
        <mxCell id="eRHPwqO124K7hBbh6g_9-90" value="" style="rounded=0;whiteSpace=wrap;html=1;rotation=90;" vertex="1" parent="1">
          <mxGeometry x="1356.5" y="173" width="55" height="40" as="geometry" />
        </mxCell>
        <mxCell id="eRHPwqO124K7hBbh6g_9-91" value="" style="rounded=0;whiteSpace=wrap;html=1;rotation=90;" vertex="1" parent="1">
          <mxGeometry x="1223.5" y="173" width="55" height="40" as="geometry" />
        </mxCell>
        <mxCell id="eRHPwqO124K7hBbh6g_9-92" value="&lt;u&gt;Did&lt;/u&gt;" style="rhombus;whiteSpace=wrap;html=1;" vertex="1" parent="1">
          <mxGeometry x="1101" y="80.5" width="80" height="80" as="geometry" />
        </mxCell>
        <mxCell id="eRHPwqO124K7hBbh6g_9-93" value="" style="endArrow=none;html=1;rounded=0;fontSize=12;startSize=8;endSize=8;curved=1;entryX=0.5;entryY=1;entryDx=0;entryDy=0;exitX=0;exitY=0.5;exitDx=0;exitDy=0;" edge="1" parent="1" source="eRHPwqO124K7hBbh6g_9-91" target="eRHPwqO124K7hBbh6g_9-88">
          <mxGeometry width="50" height="50" relative="1" as="geometry">
            <mxPoint x="1263" y="244.5" as="sourcePoint" />
            <mxPoint x="1313" y="194.5" as="targetPoint" />
          </mxGeometry>
        </mxCell>
        <mxCell id="eRHPwqO124K7hBbh6g_9-94" value="" style="endArrow=none;html=1;rounded=0;fontSize=12;startSize=8;endSize=8;curved=1;entryX=0.5;entryY=1;entryDx=0;entryDy=0;exitX=0;exitY=0.5;exitDx=0;exitDy=0;" edge="1" parent="1" source="eRHPwqO124K7hBbh6g_9-90" target="eRHPwqO124K7hBbh6g_9-89">
          <mxGeometry width="50" height="50" relative="1" as="geometry">
            <mxPoint x="1203" y="180.5" as="sourcePoint" />
            <mxPoint x="1203" y="157.5" as="targetPoint" />
          </mxGeometry>
        </mxCell>
        <mxCell id="eRHPwqO124K7hBbh6g_9-95" value="" style="endArrow=none;html=1;rounded=0;fontSize=12;startSize=8;endSize=8;curved=1;entryX=0.5;entryY=1;entryDx=0;entryDy=0;exitX=0.5;exitY=0;exitDx=0;exitDy=0;" edge="1" parent="1" source="eRHPwqO124K7hBbh6g_9-89" target="eRHPwqO124K7hBbh6g_9-86">
          <mxGeometry width="50" height="50" relative="1" as="geometry">
            <mxPoint x="1349" y="190.5" as="sourcePoint" />
            <mxPoint x="1346" y="167.5" as="targetPoint" />
          </mxGeometry>
        </mxCell>
        <mxCell id="eRHPwqO124K7hBbh6g_9-96" value="" style="endArrow=none;html=1;rounded=0;fontSize=12;startSize=8;endSize=8;curved=1;entryX=0.5;entryY=1;entryDx=0;entryDy=0;exitX=0.5;exitY=0;exitDx=0;exitDy=0;" edge="1" parent="1" source="eRHPwqO124K7hBbh6g_9-88" target="eRHPwqO124K7hBbh6g_9-86">
          <mxGeometry width="50" height="50" relative="1" as="geometry">
            <mxPoint x="1336" y="117.5" as="sourcePoint" />
            <mxPoint x="1332" y="76.5" as="targetPoint" />
          </mxGeometry>
        </mxCell>
        <mxCell id="eRHPwqO124K7hBbh6g_9-97" value="" style="endArrow=none;html=1;rounded=0;fontSize=12;startSize=8;endSize=8;curved=1;entryX=0;entryY=0.5;entryDx=0;entryDy=0;exitX=0.5;exitY=0;exitDx=0;exitDy=0;" edge="1" parent="1" source="eRHPwqO124K7hBbh6g_9-92" target="eRHPwqO124K7hBbh6g_9-86">
          <mxGeometry width="50" height="50" relative="1" as="geometry">
            <mxPoint x="1203" y="117.5" as="sourcePoint" />
            <mxPoint x="1332" y="76.5" as="targetPoint" />
          </mxGeometry>
        </mxCell>
        <mxCell id="eRHPwqO124K7hBbh6g_9-98" style="edgeStyle=none;curved=1;rounded=0;orthogonalLoop=1;jettySize=auto;html=1;exitX=0;exitY=0.5;exitDx=0;exitDy=0;entryX=0.5;entryY=0;entryDx=0;entryDy=0;fontSize=12;startSize=8;endSize=8;endArrow=none;startFill=0;" edge="1" parent="1" source="eRHPwqO124K7hBbh6g_9-100" target="eRHPwqO124K7hBbh6g_9-111">
          <mxGeometry relative="1" as="geometry" />
        </mxCell>
        <mxCell id="eRHPwqO124K7hBbh6g_9-99" style="edgeStyle=none;curved=1;rounded=0;orthogonalLoop=1;jettySize=auto;html=1;exitX=1;exitY=0.5;exitDx=0;exitDy=0;entryX=0.5;entryY=0;entryDx=0;entryDy=0;fontSize=12;startSize=8;endSize=8;endArrow=none;startFill=0;" edge="1" parent="1" source="eRHPwqO124K7hBbh6g_9-100" target="eRHPwqO124K7hBbh6g_9-106">
          <mxGeometry relative="1" as="geometry" />
        </mxCell>
        <mxCell id="eRHPwqO124K7hBbh6g_9-100" value="TárRendszer" style="ellipse;whiteSpace=wrap;html=1;" vertex="1" parent="1">
          <mxGeometry x="1618" y="16.5" width="120" height="50" as="geometry" />
        </mxCell>
        <mxCell id="eRHPwqO124K7hBbh6g_9-101" value="Rendelés" style="ellipse;whiteSpace=wrap;html=1;" vertex="1" parent="1">
          <mxGeometry x="1623" y="22.5" width="109" height="38" as="geometry" />
        </mxCell>
        <mxCell id="eRHPwqO124K7hBbh6g_9-102" value="menyiség" style="ellipse;whiteSpace=wrap;html=1;align=center;" vertex="1" parent="1">
          <mxGeometry x="1557" y="103" width="100" height="40" as="geometry" />
        </mxCell>
        <mxCell id="eRHPwqO124K7hBbh6g_9-103" value="cím" style="ellipse;whiteSpace=wrap;html=1;align=center;" vertex="1" parent="1">
          <mxGeometry x="1690" y="100.5" width="100" height="40" as="geometry" />
        </mxCell>
        <mxCell id="eRHPwqO124K7hBbh6g_9-104" value="" style="rounded=0;whiteSpace=wrap;html=1;rotation=90;" vertex="1" parent="1">
          <mxGeometry x="1712.5" y="173" width="55" height="40" as="geometry" />
        </mxCell>
        <mxCell id="eRHPwqO124K7hBbh6g_9-105" value="" style="rounded=0;whiteSpace=wrap;html=1;rotation=90;" vertex="1" parent="1">
          <mxGeometry x="1579.5" y="173" width="55" height="40" as="geometry" />
        </mxCell>
        <mxCell id="eRHPwqO124K7hBbh6g_9-106" value="&lt;u&gt;d_i_i&lt;/u&gt;" style="rhombus;whiteSpace=wrap;html=1;" vertex="1" parent="1">
          <mxGeometry x="1813" y="77" width="80" height="80" as="geometry" />
        </mxCell>
        <mxCell id="eRHPwqO124K7hBbh6g_9-107" value="" style="endArrow=none;html=1;rounded=0;fontSize=12;startSize=8;endSize=8;curved=1;entryX=0.5;entryY=1;entryDx=0;entryDy=0;exitX=0;exitY=0.5;exitDx=0;exitDy=0;" edge="1" parent="1" source="eRHPwqO124K7hBbh6g_9-105" target="eRHPwqO124K7hBbh6g_9-102">
          <mxGeometry width="50" height="50" relative="1" as="geometry">
            <mxPoint x="1619" y="244.5" as="sourcePoint" />
            <mxPoint x="1669" y="194.5" as="targetPoint" />
          </mxGeometry>
        </mxCell>
        <mxCell id="eRHPwqO124K7hBbh6g_9-108" value="" style="endArrow=none;html=1;rounded=0;fontSize=12;startSize=8;endSize=8;curved=1;entryX=0.5;entryY=1;entryDx=0;entryDy=0;exitX=0;exitY=0.5;exitDx=0;exitDy=0;" edge="1" parent="1" source="eRHPwqO124K7hBbh6g_9-104" target="eRHPwqO124K7hBbh6g_9-103">
          <mxGeometry width="50" height="50" relative="1" as="geometry">
            <mxPoint x="1559" y="180.5" as="sourcePoint" />
            <mxPoint x="1559" y="157.5" as="targetPoint" />
          </mxGeometry>
        </mxCell>
        <mxCell id="eRHPwqO124K7hBbh6g_9-109" value="" style="endArrow=none;html=1;rounded=0;fontSize=12;startSize=8;endSize=8;curved=1;entryX=0.5;entryY=1;entryDx=0;entryDy=0;exitX=0.5;exitY=0;exitDx=0;exitDy=0;" edge="1" parent="1" source="eRHPwqO124K7hBbh6g_9-103" target="eRHPwqO124K7hBbh6g_9-100">
          <mxGeometry width="50" height="50" relative="1" as="geometry">
            <mxPoint x="1705" y="190.5" as="sourcePoint" />
            <mxPoint x="1702" y="167.5" as="targetPoint" />
          </mxGeometry>
        </mxCell>
        <mxCell id="eRHPwqO124K7hBbh6g_9-110" value="" style="endArrow=none;html=1;rounded=0;fontSize=12;startSize=8;endSize=8;curved=1;entryX=0.5;entryY=1;entryDx=0;entryDy=0;exitX=0.5;exitY=0;exitDx=0;exitDy=0;" edge="1" parent="1" source="eRHPwqO124K7hBbh6g_9-102" target="eRHPwqO124K7hBbh6g_9-100">
          <mxGeometry width="50" height="50" relative="1" as="geometry">
            <mxPoint x="1692" y="117.5" as="sourcePoint" />
            <mxPoint x="1688" y="76.5" as="targetPoint" />
          </mxGeometry>
        </mxCell>
        <mxCell id="eRHPwqO124K7hBbh6g_9-111" value="&lt;u&gt;d_i_d&lt;/u&gt;" style="rhombus;whiteSpace=wrap;html=1;" vertex="1" parent="1">
          <mxGeometry x="1460" y="82.5" width="80" height="80" as="geometry" />
        </mxCell>
        <mxCell id="eRHPwqO124K7hBbh6g_9-112" value="" style="endArrow=none;dashed=1;html=1;dashPattern=1 3;strokeWidth=2;rounded=0;fontSize=12;startSize=8;endSize=8;entryX=0.5;entryY=1;entryDx=0;entryDy=0;exitX=1;exitY=1;exitDx=0;exitDy=0;edgeStyle=orthogonalEdgeStyle;endFill=1;startFill=1;startArrow=classic;" edge="1" parent="1" source="eRHPwqO124K7hBbh6g_9-71" target="eRHPwqO124K7hBbh6g_9-106">
          <mxGeometry width="50" height="50" relative="1" as="geometry">
            <mxPoint x="1227" y="396" as="sourcePoint" />
            <mxPoint x="1277" y="346" as="targetPoint" />
            <Array as="points">
              <mxPoint x="477" y="375" />
              <mxPoint x="1853" y="375" />
            </Array>
          </mxGeometry>
        </mxCell>
        <mxCell id="eRHPwqO124K7hBbh6g_9-113" value="" style="endArrow=none;dashed=1;html=1;rounded=0;fontSize=12;startSize=8;endSize=8;entryX=0.5;entryY=1;entryDx=0;entryDy=0;exitX=0.5;exitY=1;exitDx=0;exitDy=0;edgeStyle=orthogonalEdgeStyle;endFill=1;startFill=1;startArrow=classic;" edge="1" parent="1" source="eRHPwqO124K7hBbh6g_9-92" target="eRHPwqO124K7hBbh6g_9-111">
          <mxGeometry width="50" height="50" relative="1" as="geometry">
            <mxPoint x="1545" y="207" as="sourcePoint" />
            <mxPoint x="1595" y="157" as="targetPoint" />
            <Array as="points">
              <mxPoint x="1141" y="247" />
              <mxPoint x="1500" y="247" />
            </Array>
          </mxGeometry>
        </mxCell>
      </root>
    </mxGraphModel>
  </diagram>
</mxfile>
